HIERARCHY
ROOT Hips
{
 OFFSET 0.000000 0.000000 0.000000
 CHANNELS 6 Xposition Yposition Zposition Yrotation Xrotation Zrotation
 JOINT Chest
 {
  OFFSET 0.000000 9.585900 0.002600
  CHANNELS 3 Yrotation Xrotation Zrotation
  JOINT Chest2
  {
   OFFSET 0.000000 9.601200 -0.005300
   CHANNELS 3 Yrotation Xrotation Zrotation
   JOINT Chest3
   {
    OFFSET 0.000000 9.561800 0.000000
    CHANNELS 3 Yrotation Xrotation Zrotation
    JOINT Chest4
    {
     OFFSET 0.000000 9.552100 0.000000
     CHANNELS 3 Yrotation Xrotation Zrotation
     JOINT Neck
     {
      OFFSET 0.000000 14.453000 0.000000
      CHANNELS 3 Yrotation Xrotation Zrotation
      JOINT Head
      {
       OFFSET 0.000000 8.936500 -0.011300
       CHANNELS 3 Yrotation Xrotation Zrotation
       End Site
       {
        OFFSET 0.000000 17.073600 -0.006000
       }
      }
     }
     JOINT RightCollar
     {
      OFFSET -2.921100 9.558500 0.000000
      CHANNELS 3 Yrotation Xrotation Zrotation
      JOINT RightShoulder
      {
       OFFSET -13.519700 0.000000 0.000000
       CHANNELS 3 Yrotation Xrotation Zrotation
       JOINT RightElbow
       {
        OFFSET 0.000000 -29.696600 0.000000
        CHANNELS 3 Yrotation Xrotation Zrotation
        JOINT RightWrist
        {
         OFFSET 0.000000 -24.004700 0.000000
         CHANNELS 3 Yrotation Xrotation Zrotation
         End Site
         {
          OFFSET 0.000000 -17.728500 0.000000
         }
        }
       }
      }
     }
     JOINT LeftCollar
     {
      OFFSET 2.921100 9.558500 0.000000
      CHANNELS 3 Yrotation Xrotation Zrotation
      JOINT LeftShoulder
      {
       OFFSET 13.519700 0.000000 0.000000
       CHANNELS 3 Yrotation Xrotation Zrotation
       JOINT LeftElbow
       {
        OFFSET 0.000000 -29.696600 0.000000
        CHANNELS 3 Yrotation Xrotation Zrotation
        JOINT LeftWrist
        {
         OFFSET 0.000000 -24.004700 0.000000
         CHANNELS 3 Yrotation Xrotation Zrotation
         End Site
         {
          OFFSET 0.000000 -17.728500 0.000000
         }
        }
       }
      }
     }
    }
   }
  }
 }
 JOINT RightHip
 {
  OFFSET -7.771700 -0.012900 -0.001300
  CHANNELS 3 Yrotation Xrotation Zrotation
  JOINT RightKnee
  {
   OFFSET 0.000000 -40.869800 0.001200
   CHANNELS 3 Yrotation Xrotation Zrotation
   JOINT RightAnkle
   {
    OFFSET 0.000000 -39.717900 0.002100
    CHANNELS 3 Yrotation Xrotation Zrotation
    JOINT RightToe
    {
     OFFSET 0.000000 -4.965400 11.033500
     CHANNELS 3 Yrotation Xrotation Zrotation
     End Site
     {
      OFFSET 0.000000 -1.423100 5.872300
     }
    }
   }
  }
 }
 JOINT LeftHip
 {
  OFFSET 7.771700 -0.012900 -0.001300
  CHANNELS 3 Yrotation Xrotation Zrotation
  JOINT LeftKnee
  {
   OFFSET 0.000000 -40.869800 0.001200
   CHANNELS 3 Yrotation Xrotation Zrotation
   JOINT LeftAnkle
   {
    OFFSET 0.000000 -39.717900 0.002100
    CHANNELS 3 Yrotation Xrotation Zrotation
    JOINT LeftToe
    {
     OFFSET 0.000000 -4.965400 11.033500
     CHANNELS 3 Yrotation Xrotation Zrotation
     End Site
     {
      OFFSET 0.000000 -1.423100 5.872300
     }
    }
   }
  }
 }
}
MOTION
Frames: 13
Frame Time: 0.008333
-125.788412 57.687785 104.258862 -179.737510 -29.746930 -1.444711 3.050787 18.126966 3.001293 0.305489 2.061346 0.310278 0.487397 3.437836 0.477083 2.589524 15.766420 2.578672 -2.047142 14.634165 -0.129163 -3.790203 -8.596261 0.532111 -1.419776 0.892880 -0.435292 -17.509414 -14.072331 -4.828370 -128.724664 -18.948175 155.309219 -22.408704 -14.734595 -27.450044 -0.686556 1.389267 2.229482 27.502384 -5.712491 -4.281552 93.289992 -25.122205 -136.019311 19.163267 -10.578629 10.325774 7.399469 -45.685709 -6.775334 -10.898600 68.177617 -13.132047 7.802267 24.631838 6.491552 -0.583458 -17.932079 4.036355 -8.699843 -43.351544 -0.361993 25.746058 64.258813 23.605285 -15.298236 6.449473 -2.897157 -0.023096 0.023299 -0.042107
-125.792103 57.687547 104.266072 -179.751597 -29.732325 -1.457717 3.060362 18.121534 3.002416 0.304709 2.063373 0.308384 0.496402 3.428389 0.490396 2.591169 15.772925 2.566226 -2.060473 14.619342 -0.126580 -3.816650 -8.623550 0.542471 -1.422162 0.912689 -0.441143 -17.477226 -14.050731 -4.826142 -128.702566 -18.975951 155.289629 -22.391732 -14.757532 -27.422772 -0.698820 1.404292 2.240061 27.515009 -5.708721 -4.272123 93.302915 -25.132182 -136.020430 19.152693 -10.561818 10.291107 7.369317 -45.697019 -6.741658 -10.889622 68.156456 -13.129267 7.810980 24.629991 6.492239 -0.594172 -17.916538 4.034090 -8.737163 -43.367996 -0.337452 25.757339 64.250865 23.621895 -15.277795 6.459963 -2.909727 -0.018856 0.020723 -0.043205
-125.796762 57.686943 104.273845 -179.759756 -29.715610 -1.470305 3.068090 18.108573 3.009713 0.294682 2.074051 0.284141 0.506436 3.418754 0.506646 2.594026 15.769922 2.556683 -2.065816 14.607878 -0.116696 -3.841059 -8.640728 0.548564 -1.419731 0.929606 -0.433382 -17.452810 -14.033714 -4.828169 -128.677374 -19.013609 155.264638 -22.383798 -14.773400 -27.396243 -0.701473 1.421573 2.258311 27.530217 -5.708708 -4.263465 93.324475 -25.152374 -136.021920 19.138771 -10.550143 10.264366 7.335335 -45.712173 -6.711216 -10.891463 68.135715 -13.142318 7.831125 24.633485 6.499385 -0.595799 -17.907335 4.027803 -8.772445 -43.388141 -0.316406 25.764345 64.244398 23.632966 -15.259986 6.472361 -2.922161 -0.025277 0.017933 -0.038082
-125.801927 57.686096 104.282064 -179.770407 -29.697325 -1.479947 3.076871 18.093915 3.014742 0.295132 2.075812 0.274584 0.500126 3.423612 0.491042 2.613176 15.758220 2.586365 -2.083964 14.601978 -0.126238 -3.861433 -8.655281 0.552411 -1.420127 0.935134 -0.434859 -17.429836 -14.001091 -4.856963 -128.659344 -19.037565 155.239765 -22.373741 -14.739711 -27.393620 -0.704476 1.430103 2.259800 27.537554 -5.711096 -4.261358 93.353533 -25.189130 -136.016793 19.123511 -10.545676 10.247695 7.306449 -45.729100 -6.684841 -10.920629 68.106875 -13.180551 7.865830 24.649349 6.508869 -0.600864 -17.904795 4.022395 -8.816722 -43.419322 -0.295145 25.818159 64.242849 23.680776 -15.253576 6.493391 -2.922482 -0.039209 0.004496 -0.043576
-125.803760 57.686270 104.288806 -179.775333 -29.689873 -1.512336 3.089703 18.090581 3.031922 0.295695 2.075824 0.273602 0.502291 3.421948 0.496723 2.614725 15.753819 2.586768 -2.107895 14.593555 -0.143855 -3.869567 -8.664942 0.567662 -1.425132 0.955306 -0.437474 -17.406856 -13.980545 -4.872696 -128.662648 -19.025974 155.231197 -22.322677 -14.595624 -27.424761 -0.704618 1.438052 2.273017 27.554723 -5.692998 -4.240622 93.381920 -25.202670 -136.033132 19.142021 -10.545069 10.229704 7.251745 -45.736721 -6.627237 -10.898789 68.090742 -13.169850 7.879147 24.654463 6.514394 -0.610230 -17.899961 4.019430 -8.857359 -43.427009 -0.246933 25.834639 64.242440 23.695637 -15.261110 6.496641 -2.916617 -0.043753 0.005484 -0.047603
-125.807068 57.686452 104.295572 -179.780217 -29.681563 -1.534299 3.098605 18.087360 3.036517 0.296422 2.076295 0.273416 0.506114 3.416687 0.511819 2.615791 15.765873 2.559196 -2.113381 14.579377 -0.127648 -3.887147 -8.679898 0.572433 -1.436518 0.965099 -0.420899 -17.395216 -13.989515 -4.859424 -128.650654 -19.050625 155.218757 -22.281487 -14.515427 -27.439651 -0.709454 1.441396 2.301584 27.633729 -5.658890 -4.185863 93.364328 -25.170557 -136.073111 19.160380 -10.539238 10.214469 7.219455 -45.744858 -6.589637 -10.904623 68.071315 -13.178642 7.885661 24.667862 6.515877 -0.605820 -17.898861 4.015271 -8.880518 -43.433636 -0.214068 25.808276 64.238277 23.676454 -15.264375 6.509315 -2.922578 -0.041143 0.007052 -0.037882
-125.810139 57.686276 104.302993 -179.776888 -29.666514 -1.558556 3.097174 18.086147 3.018737 0.301874 2.065209 0.302564 0.505582 3.418271 0.501350 2.621519 15.766602 2.567060 -2.123435 14.573273 -0.131825 -3.902339 -8.696270 0.574257 -1.445226 0.978400 -0.427077 -17.377196 -13.974785 -4.870504 -128.640775 -19.077216 155.201578 -22.248829 -14.500788 -27.439627 -0.709579 1.445626 2.309583 27.683916 -5.646212 -4.150319 93.371635 -25.163782 -136.092151 19.163071 -10.532467 10.196922 7.182057 -45.760021 -6.551665 -10.938524 68.042536 -13.220973 7.926786 24.683727 6.537780 -0.621127 -17.896156 4.007301 -8.909953 -43.446309 -0.191596 25.805297 64.213454 23.687863 -15.292093 6.541932 -2.945864 -0.016653 -0.003894 -0.029103
-125.814161 57.687314 104.308011 -179.775296 -29.664447 -1.571859 3.099019 18.087776 3.022783 0.301089 2.065606 0.301860 0.503980 3.423671 0.492503 2.629656 15.758534 2.581171 -2.135977 14.572400 -0.144226 -3.920472 -8.712520 0.577374 -1.449995 0.992381 -0.442419 -17.372362 -13.937235 -4.908404 -128.621351 -19.117677 155.162316 -22.237662 -14.530303 -27.412133 -0.705256 1.460887 2.319316 27.738932 -5.635598 -4.125907 93.375272 -25.158827 -136.114232 19.173564 -10.532449 10.176535 7.152482 -45.751534 -6.527495 -10.936486 68.019570 -13.227935 7.933909 24.684106 6.545190 -0.618397 -17.887893 4.002305 -8.925123 -43.448777 -0.180464 25.812012 64.203731 23.700546 -15.298146 6.552755 -2.952644 -0.014440 -0.004167 -0.025168
-125.816636 57.688227 104.312842 -179.769126 -29.658828 -1.591385 3.099169 18.085539 3.031946 0.301369 2.070046 0.294049 0.504155 3.437088 0.476499 2.636818 15.745326 2.598490 -2.140676 14.566912 -0.147253 -3.940719 -8.732713 0.582104 -1.457520 0.997973 -0.443684 -17.378636 -13.918317 -4.918456 -128.605303 -19.151784 155.137728 -22.223315 -14.528901 -27.410630 -0.698973 1.458694 2.337977 27.800911 -5.616476 -4.097046 93.375858 -25.159065 -136.136104 19.126148 -10.536493 10.160910 7.136304 -45.750532 -6.505576 -10.964223 68.003543 -13.254613 7.942738 24.686099 6.551517 -0.617736 -17.884484 4.001350 -8.947945 -43.456990 -0.165743 25.818026 64.198756 23.713701 -15.295428 6.562949 -2.957617 -0.015283 -0.005026 -0.022245
-125.815454 57.688685 104.317805 -179.772717 -29.647076 -1.622396 3.109456 18.082195 3.047638 0.308612 2.085244 0.278535 0.508249 3.426903 0.493089 2.636384 15.743219 2.599511 -2.140628 14.556278 -0.140381 -3.960267 -8.749143 0.576202 -1.475243 1.005690 -0.446186 -17.386469 -13.896380 -4.928997 -128.585312 -19.155761 155.121527 -22.203929 -14.518990 -27.421176 -0.694268 1.455714 2.358109 27.863284 -5.599555 -4.070850 93.380361 -25.162793 -136.154938 19.110421 -10.539538 10.154273 7.120427 -45.757484 -6.462474 -10.997755 67.987743 -13.281833 7.946836 24.687381 6.556087 -0.618003 -17.880156 4.000763 -8.978416 -43.465517 -0.119052 25.812078 64.197757 23.709804 -15.290808 6.564634 -2.959168 -0.015192 -0.001263 -0.019535
-125.816027 57.689515 104.320855 -179.768140 -29.642107 -1.641718 3.116391 18.089439 3.051776 0.308316 2.079233 0.285633 0.512191 3.432281 0.488987 2.655780 15.765916 2.586046 -2.155291 14.524214 -0.115634 -3.997451 -8.777731 0.548115 -1.518189 1.010722 -0.448782 -17.384067 -13.910331 -4.895260 -128.572900 -19.188386 155.101153 -22.188775 -14.510287 -27.427715 -0.706191 1.431417 2.395330 27.919346 -5.582193 -4.043899 93.390577 -25.165016 -136.172759 19.113537 -10.541061 10.145998 7.121713 -45.755616 -6.445266 -11.035155 67.976286 -13.306863 7.939892 24.683769 6.553360 -0.616065 -17.873077 4.004305 -9.001764 -43.470340 -0.096963 25.815441 64.196505 23.714311 -15.288823 6.567256 -2.959971 -0.015831 0.000608 -0.017986
-125.815949 57.690157 104.322879 -179.760804 -29.638356 -1.661698 3.125245 18.097833 3.054305 0.305006 2.073279 0.294548 0.510651 3.429081 0.493481 2.658517 15.766826 2.586669 -2.158841 14.529596 -0.132400 -4.015189 -8.796039 0.549237 -1.526741 1.023293 -0.461212 -17.393670 -13.907589 -4.887881 -128.555058 -19.214470 155.080014 -22.177128 -14.501320 -27.430228 -0.704933 1.431849 2.402427 27.961407 -5.565863 -4.019138 93.417713 -25.172223 -136.186999 19.116657 -10.541261 10.138933 7.132342 -45.752982 -6.438615 -11.057658 67.972661 -13.308981 7.925668 24.675199 6.546569 -0.615003 -17.865184 4.010074 -9.039781 -43.479740 -0.065414 25.827848 64.204717 23.717342 -15.284990 6.570568 -2.958626 -0.018771 -0.001050 -0.016740
-125.816094 57.690590 104.323757 -179.759250 -29.637488 -1.673639 3.146844 18.116938 3.045190 0.309317 2.079891 0.290286 0.505976 3.418903 0.511291 2.666753 15.772079 2.588538 -2.169851 14.530423 -0.157248 -4.035063 -8.826470 0.572633 -1.542974 1.016236 -0.462735 -17.422054 -13.854616 -4.922775 -128.522716 -19.168516 155.070159 -22.166882 -14.493737 -27.428923 -0.714443 1.412445 2.422272 27.971371 -5.563011 -4.013406 93.455809 -25.188039 -136.191207 19.100862 -10.549228 10.135517 7.139130 -45.750217 -6.433034 -11.056652 67.974441 -13.297018 7.910684 24.655851 6.533306 -0.617392 -17.849073 4.022391 -9.058774 -43.483508 -0.045261 25.826480 64.214601 23.711698 -15.282653 6.567755 -2.956821 -0.015563 -0.001037 -0.016263
